#!OML:ASF F:\VICON\USERDATA\INSTALL\rory3\rory3.ASF
:FULLY-SPECIFIED
:DEGREES
484
root 1.1027 15.2607 -6.06657 -4.34595 -14.6038 0.214121
lowerback -2.21335 6.92384 7.81996
upperback 0.202068 9.11792 -3.6299
thorax 3.26471 4.73578 -7.5575
lowerneck -4.08488 -2.02271 -8.28198
upperneck 45.4842 1.79741 -6.60129
head 17.7946 -1.51163 -1.33608
rclavicle -5.24295e-014 1.66979e-014
rhumerus 49.2132 -1.31207 -69.0044
rradius 132.427
rwrist -59.2709
rhand -3.47988 -44.6137
rfingers 7.12502
rthumb 22.2533 -73.3525
lclavicle -5.24295e-014 1.66979e-014
lhumerus -24.844 -35.1493 78.9458
lradius 32.3141
lwrist 19.1106
lhand -14.1507 -24.8952
lfingers 7.12502
lthumb 11.9838 4.74179
rfemur -22.7616 -24.1149 26.5829
rtibia 69.2914
rfoot -46.8924 -35.783
rtoes 10.2466
lfemur -29.5766 -16.5721 4.58099
ltibia 14.1791
lfoot 14.7357 1.27288
ltoes -17.8116
485
root 1.10187 15.2593 -6.0636 -4.44884 -14.5614 0.146847
lowerback -2.05116 6.95545 7.97123
upperback 0.121549 9.16812 -3.61011
thorax 3.11972 4.75486 -7.64089
lowerneck -3.9524 -2.03368 -8.43441
upperneck 45.6328 1.77172 -6.49622
head 17.8549 -1.53799 -1.27
rclavicle -3.3048e-014 -3.18055e-015
rhumerus 49.2188 -1.29718 -68.9426
rradius 132.269
rwrist -59.253
rhand -2.93012 -44.3274
rfingers 7.12502
rthumb 22.781 -73.0022
lclavicle -3.3048e-014 -3.18055e-015
lhumerus -25.2796 -35.046 79.1807
lradius 32.3111
lwrist 19.1417
lhand -14.2664 -24.2338
lfingers 7.12502
lthumb 11.8722 5.4096
rfemur -22.5723 -24.1168 26.5714
rtibia 69.3126
rfoot -47.4026 -35.2722
rtoes 11.0313
lfemur -29.5022 -16.5811 4.57585
ltibia 14.2492
lfoot 14.6171 1.10996
ltoes -18.032
486
root 1.10299 15.2587 -6.06461 -4.44454 -14.3979 0.307765
lowerback -2.08189 6.98565 7.91939
upperback -0.0454289 9.21088 -3.68537
thorax 2.97427 4.76447 -7.69556
lowerneck -3.50813 -2.04954 -8.45253
upperneck 45.6963 1.73362 -6.56793
head 17.7836 -1.56004 -1.30356
rclavicle -3.18552e-014 3.97569e-015
rhumerus 49.0605 -1.22471 -68.9906
rradius 132.406
rwrist -59.2433
rhand -2.35398 -44.2259
rfingers 7.12502
rthumb 23.3338 -72.8317
lclavicle -3.18552e-014 3.97569e-015
lhumerus -25.7694 -34.751 79.3842
lradius 32.3562
lwrist 18.9915
lhand -14.5211 -24.6267
lfingers 7.12502
lthumb 11.6266 5.03077
rfemur -22.6925 -24.2774 26.4149
rtibia 69.3598
rfoot -46.9626 -35.8637
rtoes 10.2364
lfemur -29.6473 -16.7474 4.4226
ltibia 14.2843
lfoot 14.5768 1.08488
ltoes -18.1169
487
root 1.10318 15.2515 -6.07232 -4.39268 -14.2009 0.337994
lowerback -2.11556 7.11803 8.08589
upperback -0.277796 9.38761 -3.81882
thorax 2.83387 4.84347 -7.92123
lowerneck -2.68288 -2.12934 -8.22341
upperneck 45.5996 1.52517 -6.73532
head 17.5079 -1.60781 -1.43317
rclavicle 1.74931e-014 7.95139e-016
rhumerus 48.6387 -1.39743 -68.9899
rradius 132.644
rwrist -59.243
rhand -2.29174 -42.7414
rfingers 7.12502
rthumb 23.3936 -71.3396
lclavicle 1.74931e-014 7.95139e-016
lhumerus -26.3604 -34.8927 79.6322
lradius 32.5048
lwrist 18.9271
lhand -14.7125 -25.4287
lfingers 7.12502
lthumb 11.442 4.23906
rfemur -22.9099 -24.3468 26.4912
rtibia 69.4386
rfoot -46.7968 -36.2987
rtoes 9.90917
lfemur -29.8176 -16.8017 4.40674
ltibia 14.224
lfoot 14.724 0.967538
ltoes -18.2528
488
root 1.10115 15.2446 -6.08081 -4.37612 -14.0185 0.322382
lowerback -2.01956 7.18426 8.08899
upperback -0.130888 9.48552 -3.90742
thorax 2.9709 4.90656 -8.00687
lowerneck -3.18535 -2.27134 -7.93748
upperneck 45.6212 1.39259 -6.88967
head 17.6436 -1.6375 -1.58381
rclavicle -3.6477e-014 1.74931e-014
rhumerus 48.9848 -1.75849 -68.9848
rradius 132.732
rwrist -59.2031
rhand -2.3494 -44.2129
rfingers 7.12502
rthumb 23.3382 -72.8181
lclavicle -3.6477e-014 1.74931e-014
lhumerus -26.0151 -35.159 79.4149
lradius 32.5984
lwrist 19.1683
lhand -14.7845 -25.5019
lfingers 7.12502
lthumb 11.3726 4.16973
rfemur -23.038 -24.3562 26.5988
rtibia 69.5244
rfoot -47.0663 -36.263
rtoes 10.3093
lfemur -29.9203 -16.8398 4.42302
ltibia 14.1467
lfoot 14.9017 0.882259
ltoes -18.4553
489
root 1.1003 15.2413 -6.08601 -4.41818 -13.9286 0.333489
lowerback -1.907 7.22811 8.19089
upperback -0.195758 9.55141 -3.92313
thorax 2.87273 4.93521 -8.09208
lowerneck -2.96402 -2.33067 -8.15141
upperneck 45.6769 1.26522 -6.7443
head 17.6229 -1.70586 -1.49501
rclavicle 1.0138e-014 -2.62396e-014
rhumerus 48.9092 -1.71035 -68.9704
rradius 132.784
rwrist -59.2125
rhand -1.53825 -42.3364
rfingers 7.12502
rthumb 24.1162 -70.8407
lclavicle 1.0138e-014 -2.62396e-014
lhumerus -26.4024 -35.1023 79.6178
lradius 32.6928
lwrist 19.3056
lhand -14.9442 -25.2646
lfingers 7.12502
lthumb 11.2186 4.4154
rfemur -23.0612 -24.3641 26.6105
rtibia 69.5824
rfoot -47.0442 -36.4172
rtoes 10.2562
lfemur -29.9656 -16.9936 4.44752
ltibia 14.1557
lfoot 14.9148 0.974333
ltoes -18.4282
490
root 1.10067 15.2359 -6.08853 -4.44531 -13.8883 0.195622
lowerback -1.80123 7.31701 8.40286
upperback -0.209836 9.67345 -3.87877
thorax 2.85131 4.99763 -8.16303
lowerneck -2.86936 -2.43085 -8.37118
upperneck 45.8051 1.09335 -6.58051
head 17.6806 -1.79479 -1.40933
rclavicle -8.92543e-014 4.45278e-014
rhumerus 48.8994 -1.75772 -68.9465
rradius 132.948
rwrist -59.2586
rhand -1.28372 -43.3531
rfingers 7.12502
rthumb 24.3602 -71.8248
lclavicle -8.92543e-014 4.45278e-014
lhumerus -26.6204 -34.9506 79.7738
lradius 32.6998
lwrist 19.1231
lhand -15.0852 -25.0392
lfingers 7.12502
lthumb 11.0826 4.64817
rfemur -23.0247 -24.3351 26.7604
rtibia 69.6095
rfoot -47.0992 -36.4948
rtoes 9.85414
lfemur -29.9755 -16.9224 4.54246
ltibia 14.1948
lfoot 14.8586 0.737181
ltoes -18.5603
